<mxfile host="Electron" modified="2024-12-20T06:03:33.069Z" agent="Mozilla/5.0 (Windows NT 10.0; Win64; x64) AppleWebKit/537.36 (KHTML, like Gecko) draw.io/22.1.21 Chrome/120.0.6099.109 Electron/28.1.0 Safari/537.36" etag="-WQ_Y-5VKycOkGACTooA" version="22.1.21" type="device">
  <diagram name="Page-1" id="7O5ZCAduAOu0vYEH7nhv">
    <mxGraphModel dx="1592" dy="1706" grid="1" gridSize="10" guides="1" tooltips="1" connect="1" arrows="1" fold="1" page="1" pageScale="1" pageWidth="850" pageHeight="1100" math="0" shadow="0">
      <root>
        <mxCell id="0" />
        <mxCell id="1" parent="0" />
        <mxCell id="QZHU4z2OpkG28Udl0Ld5-2" value="" style="edgeStyle=orthogonalEdgeStyle;rounded=0;orthogonalLoop=1;jettySize=auto;html=1;" edge="1" parent="1" source="QZHU4z2OpkG28Udl0Ld5-3" target="QZHU4z2OpkG28Udl0Ld5-8">
          <mxGeometry relative="1" as="geometry" />
        </mxCell>
        <mxCell id="QZHU4z2OpkG28Udl0Ld5-3" value="Hiển thị&amp;nbsp; danh sách Footer" style="rounded=1;whiteSpace=wrap;html=1;fontSize=12;glass=0;strokeWidth=1;shadow=0;" vertex="1" parent="1">
          <mxGeometry x="160" y="80" width="120" height="40" as="geometry" />
        </mxCell>
        <mxCell id="QZHU4z2OpkG28Udl0Ld5-4" value="" style="edgeStyle=orthogonalEdgeStyle;rounded=0;orthogonalLoop=1;jettySize=auto;html=1;" edge="1" parent="1" source="QZHU4z2OpkG28Udl0Ld5-5" target="QZHU4z2OpkG28Udl0Ld5-3">
          <mxGeometry relative="1" as="geometry" />
        </mxCell>
        <mxCell id="QZHU4z2OpkG28Udl0Ld5-5" value="" style="strokeWidth=2;html=1;shape=mxgraph.flowchart.start_2;whiteSpace=wrap;" vertex="1" parent="1">
          <mxGeometry x="204" y="-10" width="66" height="60" as="geometry" />
        </mxCell>
        <mxCell id="QZHU4z2OpkG28Udl0Ld5-6" value="" style="strokeWidth=2;html=1;shape=mxgraph.flowchart.start_2;whiteSpace=wrap;" vertex="1" parent="1">
          <mxGeometry x="340" y="610" width="66" height="60" as="geometry" />
        </mxCell>
        <mxCell id="QZHU4z2OpkG28Udl0Ld5-7" value="" style="edgeStyle=orthogonalEdgeStyle;rounded=0;orthogonalLoop=1;jettySize=auto;html=1;" edge="1" parent="1" source="QZHU4z2OpkG28Udl0Ld5-8" target="QZHU4z2OpkG28Udl0Ld5-13">
          <mxGeometry relative="1" as="geometry" />
        </mxCell>
        <mxCell id="QZHU4z2OpkG28Udl0Ld5-8" value="Xóa" style="rounded=1;whiteSpace=wrap;html=1;fontSize=12;glass=0;strokeWidth=1;shadow=0;" vertex="1" parent="1">
          <mxGeometry x="160" y="180" width="120" height="40" as="geometry" />
        </mxCell>
        <mxCell id="QZHU4z2OpkG28Udl0Ld5-9" style="edgeStyle=orthogonalEdgeStyle;rounded=0;orthogonalLoop=1;jettySize=auto;html=1;entryX=0.25;entryY=0;entryDx=0;entryDy=0;" edge="1" parent="1" source="QZHU4z2OpkG28Udl0Ld5-13" target="QZHU4z2OpkG28Udl0Ld5-15">
          <mxGeometry relative="1" as="geometry" />
        </mxCell>
        <mxCell id="QZHU4z2OpkG28Udl0Ld5-10" value="xóa" style="edgeLabel;html=1;align=center;verticalAlign=middle;resizable=0;points=[];" vertex="1" connectable="0" parent="QZHU4z2OpkG28Udl0Ld5-9">
          <mxGeometry x="-0.2511" y="5" relative="1" as="geometry">
            <mxPoint as="offset" />
          </mxGeometry>
        </mxCell>
        <mxCell id="QZHU4z2OpkG28Udl0Ld5-11" style="edgeStyle=orthogonalEdgeStyle;rounded=0;orthogonalLoop=1;jettySize=auto;html=1;entryX=1;entryY=0;entryDx=0;entryDy=0;" edge="1" parent="1" source="QZHU4z2OpkG28Udl0Ld5-13" target="QZHU4z2OpkG28Udl0Ld5-16">
          <mxGeometry relative="1" as="geometry" />
        </mxCell>
        <mxCell id="QZHU4z2OpkG28Udl0Ld5-12" value="không" style="edgeLabel;html=1;align=center;verticalAlign=middle;resizable=0;points=[];" vertex="1" connectable="0" parent="QZHU4z2OpkG28Udl0Ld5-11">
          <mxGeometry x="-0.4261" y="-5" relative="1" as="geometry">
            <mxPoint as="offset" />
          </mxGeometry>
        </mxCell>
        <mxCell id="QZHU4z2OpkG28Udl0Ld5-13" value="Xác nhận" style="strokeWidth=2;html=1;shape=mxgraph.flowchart.decision;whiteSpace=wrap;" vertex="1" parent="1">
          <mxGeometry x="170" y="260" width="100" height="100" as="geometry" />
        </mxCell>
        <mxCell id="QZHU4z2OpkG28Udl0Ld5-14" value="" style="edgeStyle=orthogonalEdgeStyle;rounded=0;orthogonalLoop=1;jettySize=auto;html=1;" edge="1" parent="1" source="QZHU4z2OpkG28Udl0Ld5-15" target="QZHU4z2OpkG28Udl0Ld5-19">
          <mxGeometry relative="1" as="geometry" />
        </mxCell>
        <mxCell id="QZHU4z2OpkG28Udl0Ld5-15" value="Xóa" style="rounded=1;whiteSpace=wrap;html=1;fontSize=12;glass=0;strokeWidth=1;shadow=0;" vertex="1" parent="1">
          <mxGeometry x="40" y="400" width="120" height="40" as="geometry" />
        </mxCell>
        <mxCell id="QZHU4z2OpkG28Udl0Ld5-16" value="không xóa" style="rounded=1;whiteSpace=wrap;html=1;fontSize=12;glass=0;strokeWidth=1;shadow=0;" vertex="1" parent="1">
          <mxGeometry x="300" y="390" width="120" height="40" as="geometry" />
        </mxCell>
        <mxCell id="QZHU4z2OpkG28Udl0Ld5-17" style="edgeStyle=orthogonalEdgeStyle;rounded=0;orthogonalLoop=1;jettySize=auto;html=1;entryX=0.75;entryY=0;entryDx=0;entryDy=0;exitX=1;exitY=0.5;exitDx=0;exitDy=0;exitPerimeter=0;" edge="1" parent="1" source="QZHU4z2OpkG28Udl0Ld5-19" target="QZHU4z2OpkG28Udl0Ld5-25">
          <mxGeometry relative="1" as="geometry" />
        </mxCell>
        <mxCell id="QZHU4z2OpkG28Udl0Ld5-18" value="thất bại" style="edgeLabel;html=1;align=center;verticalAlign=middle;resizable=0;points=[];" vertex="1" connectable="0" parent="QZHU4z2OpkG28Udl0Ld5-17">
          <mxGeometry x="-0.4739" y="4" relative="1" as="geometry">
            <mxPoint as="offset" />
          </mxGeometry>
        </mxCell>
        <mxCell id="QZHU4z2OpkG28Udl0Ld5-19" value="" style="strokeWidth=2;html=1;shape=mxgraph.flowchart.decision;whiteSpace=wrap;" vertex="1" parent="1">
          <mxGeometry x="40" y="510" width="90" height="90" as="geometry" />
        </mxCell>
        <mxCell id="QZHU4z2OpkG28Udl0Ld5-20" style="edgeStyle=orthogonalEdgeStyle;rounded=0;orthogonalLoop=1;jettySize=auto;html=1;entryX=0;entryY=0.75;entryDx=0;entryDy=0;" edge="1" parent="1" source="QZHU4z2OpkG28Udl0Ld5-21" target="QZHU4z2OpkG28Udl0Ld5-24">
          <mxGeometry relative="1" as="geometry" />
        </mxCell>
        <mxCell id="QZHU4z2OpkG28Udl0Ld5-21" value="Thông báo thành công" style="rounded=1;whiteSpace=wrap;html=1;fontSize=12;glass=0;strokeWidth=1;shadow=0;" vertex="1" parent="1">
          <mxGeometry x="-70" y="610" width="120" height="40" as="geometry" />
        </mxCell>
        <mxCell id="QZHU4z2OpkG28Udl0Ld5-22" style="edgeStyle=orthogonalEdgeStyle;rounded=0;orthogonalLoop=1;jettySize=auto;html=1;entryX=0.158;entryY=0.075;entryDx=0;entryDy=0;entryPerimeter=0;exitX=0;exitY=0.5;exitDx=0;exitDy=0;exitPerimeter=0;" edge="1" parent="1" source="QZHU4z2OpkG28Udl0Ld5-19" target="QZHU4z2OpkG28Udl0Ld5-21">
          <mxGeometry relative="1" as="geometry" />
        </mxCell>
        <mxCell id="QZHU4z2OpkG28Udl0Ld5-23" value="thành công" style="edgeLabel;html=1;align=center;verticalAlign=middle;resizable=0;points=[];" vertex="1" connectable="0" parent="QZHU4z2OpkG28Udl0Ld5-22">
          <mxGeometry x="-0.2744" relative="1" as="geometry">
            <mxPoint as="offset" />
          </mxGeometry>
        </mxCell>
        <mxCell id="QZHU4z2OpkG28Udl0Ld5-24" value="lấy dữ liệu Footer mới" style="rounded=1;whiteSpace=wrap;html=1;fontSize=12;glass=0;strokeWidth=1;shadow=0;" vertex="1" parent="1">
          <mxGeometry x="50" y="700" width="120" height="40" as="geometry" />
        </mxCell>
        <mxCell id="QZHU4z2OpkG28Udl0Ld5-25" value="Thông báo lỗi" style="rounded=1;whiteSpace=wrap;html=1;fontSize=12;glass=0;strokeWidth=1;shadow=0;" vertex="1" parent="1">
          <mxGeometry x="130" y="610" width="120" height="40" as="geometry" />
        </mxCell>
        <mxCell id="QZHU4z2OpkG28Udl0Ld5-26" style="edgeStyle=orthogonalEdgeStyle;rounded=0;orthogonalLoop=1;jettySize=auto;html=1;entryX=1;entryY=0.5;entryDx=0;entryDy=0;entryPerimeter=0;exitX=1;exitY=0.5;exitDx=0;exitDy=0;" edge="1" parent="1" source="QZHU4z2OpkG28Udl0Ld5-16" target="QZHU4z2OpkG28Udl0Ld5-6">
          <mxGeometry relative="1" as="geometry" />
        </mxCell>
        <mxCell id="QZHU4z2OpkG28Udl0Ld5-27" style="edgeStyle=orthogonalEdgeStyle;rounded=0;orthogonalLoop=1;jettySize=auto;html=1;entryX=0;entryY=0.5;entryDx=0;entryDy=0;entryPerimeter=0;" edge="1" parent="1" source="QZHU4z2OpkG28Udl0Ld5-25" target="QZHU4z2OpkG28Udl0Ld5-6">
          <mxGeometry relative="1" as="geometry" />
        </mxCell>
        <mxCell id="QZHU4z2OpkG28Udl0Ld5-28" style="edgeStyle=orthogonalEdgeStyle;rounded=0;orthogonalLoop=1;jettySize=auto;html=1;entryX=0.5;entryY=1;entryDx=0;entryDy=0;entryPerimeter=0;" edge="1" parent="1" source="QZHU4z2OpkG28Udl0Ld5-24" target="QZHU4z2OpkG28Udl0Ld5-6">
          <mxGeometry relative="1" as="geometry" />
        </mxCell>
      </root>
    </mxGraphModel>
  </diagram>
</mxfile>
